<svg xmlns="http://www.w3.org/2000/svg" style="display: none;">
  
  <!-- Features Icons -->
  <symbol id="icon-antenna.svg" viewBox="0 0 32 32">
    <!-- Вставте сюди path з вашої іконки antenna -->
    <path d="M16 2C15.4477 2 15 2.44772 15 3V4.07089C11.0539 4.55612 8 7.92038 8 12V14C8 14.5523 8.44772 15 9 15C9.55228 15 10 14.5523 10 14V12C10 8.68629 12.6863 6 16 6C19.3137 6 22 8.68629 22 12V14C22 14.5523 22.4477 15 23 15C23.5523 15 24 14.5523 24 14V12C24 7.92038 20.9461 4.55612 17 4.07089V3C17 2.44772 16.5523 2 16 2Z"/>
    <path d="M12 18C12 17.4477 12.4477 17 13 17H19C19.5523 17 20 17.4477 20 18C20 18.5523 19.5523 19 19 19H13C12.4477 19 12 18.5523 12 18Z"/>
  </symbol>

  <symbol id="icon-clock.svg" viewBox="0 0 32 32">
    <!-- Вставте сюди path з вашої іконки clock -->
    <path d="M16 4C9.37258 4 4 9.37258 4 16C4 22.6274 9.37258 28 16 28C22.6274 28 28 22.6274 28 16C28 9.37258 22.6274 4 16 4ZM16 6C21.5466 6 26 10.4534 26 16C26 21.5466 21.5466 26 16 26C10.4534 26 6 21.5466 6 16C6 10.4534 10.4534 6 16 6Z"/>
    <path d="M15 9C15 8.44772 15.4477 8 16 8C16.5523 8 17 8.44772 17 9V16.4142L20.7071 20.1213C21.0976 20.5118 21.0976 21.145 20.7071 21.5355C20.3166 21.9261 19.6834 21.9261 19.2929 21.5355L15.2929 17.5355C15.1054 17.348 15 17.0946 15 16.8284V9Z"/>
  </symbol>

  <symbol id="icon-diagram.svg" viewBox="0 0 32 32">
    <!-- Вставте сюди path з вашої іконки diagram -->
    <path d="M4 28C4 28.5523 4.44772 29 5 29H27C27.5523 29 28 28.5523 28 28C28 27.4477 27.5523 27 27 27H5C4.44772 27 4 27.4477 4 28Z"/>
    <path d="M7 24C7 24.5523 7.44772 25 8 25C8.55228 25 9 24.5523 9 24V16C9 15.4477 8.55228 15 8 15C7.44772 15 7 15.4477 7 16V24Z"/>
    <path d="M15 24C15 24.5523 15.4477 25 16 25C16.5523 25 17 24.5523 17 24V11C17 10.4477 16.5523 10 16 10C15.4477 10 15 10.4477 15 11V24Z"/>
    <path d="M23 24C23 24.5523 23.4477 25 24 25C24.5523 25 25 24.5523 25 24V6C25 5.44772 24.5523 5 24 5C23.4477 5 23 5.44772 23 6V24Z"/>
  </symbol>

  <symbol id="icon-astronaut.svg" viewBox="0 0 32 32">
    <!-- Вставте сюди path з вашої іконки astronaut -->
    <path d="M16 4C13.7909 4 12 5.79086 12 8C12 10.2091 13.7909 12 16 12C18.2091 12 20 10.2091 20 8C20 5.79086 18.2091 4 16 4Z"/>
    <path d="M10 14C8.89543 14 8 14.8954 8 16V20C8 21.1046 8.89543 22 10 22H11V26C11 27.1046 11.8954 28 13 28C14.1046 28 15 27.1046 15 26V22H17V26C17 27.1046 17.8954 28 19 28C20.1046 28 21 27.1046 21 26V22H22C23.1046 22 24 21.1046 24 20V16C24 14.8954 23.1046 14 22 14H10Z"/>
  </symbol>

  <!-- Social Media Icons -->
  <symbol id="icon-instagram.svg" viewBox="0 0 32 32">
    <!-- Вставте сюди path з вашої іконки instagram -->
    <path d="M16 6C12.741 6 12.333 6.014 11.053 6.072C9.775 6.132 8.903 6.333 8.14 6.63C7.351 6.936 6.681 7.347 6.014 8.014C5.347 8.681 4.936 9.351 4.63 10.14C4.333 10.903 4.131 11.775 4.072 13.053C4.014 14.333 4 14.741 4 16C4 19.259 4.014 19.667 4.072 20.947C4.132 22.225 4.333 23.097 4.63 23.86C4.936 24.649 5.347 25.319 6.014 25.986C6.681 26.653 7.351 27.064 8.14 27.37C8.903 27.667 9.775 27.868 11.053 27.928C12.333 27.986 12.741 28 16 28C19.259 28 19.667 27.986 20.947 27.928C22.225 27.868 23.097 27.667 23.86 27.37C24.649 27.064 25.319 26.653 25.986 25.986C26.653 25.319 27.064 24.649 27.37 23.86C27.667 23.097 27.868 22.225 27.928 20.947C27.986 19.667 28 19.259 28 16C28 12.741 27.986 12.333 27.928 11.053C27.868 9.775 27.667 8.903 27.37 8.14C27.064 7.351 26.653 6.681 25.986 6.014C25.319 5.347 24.649 4.936 23.86 4.63C23.097 4.333 22.225 4.132 20.947 4.072C19.667 4.014 19.259 4 16 4Z"/>
    <path d="M16 10.667C13.054 10.667 10.667 13.054 10.667 16C10.667 18.946 13.054 21.333 16 21.333C18.946 21.333 21.333 18.946 21.333 16C21.333 13.054 18.946 10.667 16 10.667Z"/>
  </symbol>

  <symbol id="icon-twitter.svg" viewBox="0 0 32 32">
    <!-- Вставте сюди path з вашої іконки twitter -->
    <path d="M28.919 8.76c.013.176.013.352.013.528 0 5.387-4.102 11.598-11.598 11.598-2.304 0-4.447-.673-6.246-1.826.324.038.636.05.972.05 1.899 0 3.647-.647 5.035-1.737-1.774-.037-3.27-1.204-3.787-2.812.25.037.5.062.762.062.361 0 .723-.05 1.059-.137-1.849-.373-3.245-2.006-3.245-3.968v-.05c.536.298 1.16.486 1.823.511-1.084-.723-1.798-1.962-1.798-3.357 0-.748.199-1.434.548-2.031 1.998 2.455 4.984 4.065 8.346 4.24-.062-.298-.099-.61-.099-.923 0-2.23 1.81-4.04 4.04-4.04 1.16 0 2.207.486 2.943 1.272.911-.174 1.786-.511 2.568-.973-.298.936-.936 1.723-1.761 2.218.81-.087 1.598-.311 2.331-.623-.548.798-1.234 1.498-2.031 2.056z"/>
  </symbol>

  <symbol id="icon-facebook.svg" viewBox="0 0 32 32">
    <!-- Вставте сюди path з вашої іконки facebook -->
    <path d="M19 6H17C14.791 6 13 7.791 13 10V12H11C10.448 12 10 12.448 10 13V16C10 16.552 10.448 17 11 17H13V25C13 25.552 13.448 26 14 26H17C17.552 26 18 25.552 18 25V17H20.383C20.88 17 21.302 16.632 21.376 16.142L21.876 13.142C21.967 12.53 21.502 12 20.883 12H18V10C18 9.448 18.448 9 19 9H21C21.552 9 22 8.552 22 8V6.5C22 5.948 21.552 5.5 21 5.5H19V6Z"/>
  </symbol>

  <symbol id="icon-linkedin.svg" viewBox="0 0 32 32">
    <!-- Вставте сюди path з вашої іконки linkedin -->
    <path d="M12 12H8V24H12V12Z"/>
    <path d="M10 10C11.105 10 12 9.105 12 8C12 6.895 11.105 6 10 6C8.895 6 8 6.895 8 8C8 9.105 8.895 10 10 10Z"/>
    <path d="M24 24H20V18C20 16.895 19.105 16 18 16C16.895 16 16 16.895 16 18V24H12V12H16V13.819C16.861 12.709 18.312 12 19.738 12C22.095 12 24 13.905 24 16.262V24Z"/>
  </symbol>

  <!-- Footer & Modal Icons -->
  <symbol id="icon-send.svg" viewBox="0 0 32 32">
    <!-- Вставте сюди path з вашої іконки send -->
    <path d="M27.707 4.293C27.52 4.105 27.265 4 27 4C26.869 4 26.738 4.026 26.617 4.076L4.617 12.076C4.247 12.218 4 12.579 4 13C4 13.421 4.247 13.782 4.617 13.924L13 17.132V26C13 26.346 13.178 26.668 13.474 26.851C13.632 26.95 13.816 27 14 27C14.169 27 14.337 26.956 14.485 26.868L19.197 24.039L25.383 27.132C25.569 27.225 25.784 27.275 26 27.275C26.265 27.275 26.52 27.17 26.707 26.982C26.895 26.795 27 26.54 27 26.275V5C27 4.735 26.895 4.48 26.707 4.293Z"/>
  </symbol>

  <symbol id="icon-close.svg" viewBox="0 0 32 32">
    <!-- Вставте сюди path з вашої іконки close -->
    <path d="M25.333 8.547L23.453 6.667L16 14.12L8.547 6.667L6.667 8.547L14.12 16L6.667 23.453L8.547 25.333L16 17.88L23.453 25.333L25.333 23.453L17.88 16L25.333 8.547Z"/>
  </symbol>

  <symbol id="icon-person.svg" viewBox="0 0 32 32">
    <!-- Вставте сюди path з вашої іконки person -->
    <path d="M16 4C13.791 4 12 5.791 12 8C12 10.209 13.791 12 16 12C18.209 12 20 10.209 20 8C20 5.791 18.209 4 16 4Z"/>
    <path d="M10 14C8.343 14 7 15.343 7 17V24C7 25.657 8.343 27 10 27H22C23.657 27 25 25.657 25 24V17C25 15.343 23.657 14 22 14H10Z"/>
  </symbol>

  <symbol id="icon-phone.svg" viewBox="0 0 32 32">
    <!-- Вставте сюди path з вашої іконки phone -->
    <path d="M22.92 20.533c-.788-.788-2.07-.788-2.858 0l-1.097 1.097c-.196.196-.512.196-.708 0l-4.788-4.788c-.196-.196-.196-.512 0-.708l1.097-1.097c.788-.788.788-2.07 0-2.858l-2.525-2.525c-.788-.788-2.07-.788-2.858 0l-1.097 1.097c-1.575 1.575-1.575 4.141 0 5.716l6.788 6.788c1.575 1.575 4.141 1.575 5.716 0l1.097-1.097c.788-.788.788-2.07 0-2.858l-2.525-2.525z"/>
  </symbol>

  <symbol id="icon-email.svg" viewBox="0 0 32 32">
    <!-- Вставте сюди path з вашої іконки email -->
    <path d="M26 6H6C4.895 6 4 6.895 4 8V24C4 25.105 4.895 26 6 26H26C27.105 26 28 25.105 28 24V8C28 6.895 27.105 6 26 6ZM24 10L16 15L8 10V8L16 13L24 8V10Z"/>
  </symbol>

  <symbol id="icon-checkmark.svg" viewBox="0 0 32 32">
    <!-- Вставте сюди path з вашої іконки checkmark -->
    <path d="M28.707 8.293C28.316 7.902 27.684 7.902 27.293 8.293L12 23.586L4.707 16.293C4.316 15.902 3.684 15.902 3.293 16.293C2.902 16.684 2.902 17.316 3.293 17.707L11.293 25.707C11.488 25.902 11.744 26 12 26C12.256 26 12.512 25.902 12.707 25.707L28.707 9.707C29.098 9.316 29.098 8.684 28.707 8.293Z"/>
  </symbol>

</svg>