<svg xmlns="http://www.w3.org/2000/svg" style="display: none;">
  
  <!-- Icon: antenna -->
  <symbol id="icon-antenna" viewBox="0 0 64 64">
    <path d="M57.856 11.36c-0.896-2.24-3.584-3.328-5.952-2.432-2.24 0.896-3.328 3.584-2.432 5.952 0.384 0.896 0.896 1.664 1.664 2.176l-5.312 13.312c-0.512-0.128-1.024-0.256-1.664-0.256-1.28 0-2.432 0.384-3.456 1.024l-8.192-10.24c0.768-1.024 1.28-2.304 1.28-3.712 0-3.328-2.688-6.016-6.016-6.016s-6.016 2.688-6.016 6.016c0 1.408 0.512 2.688 1.28 3.712l-8.192 10.24c-1.024-0.64-2.176-1.024-3.456-1.024-0.64 0-1.152 0.128-1.664 0.256l-5.312-13.312c0.768-0.512 1.28-1.28 1.664-2.176 0.896-2.24-0.256-4.928-2.432-5.952-2.368-0.896-5.056 0.128-5.952 2.432-0.896 2.24 0.256 4.928 2.432 5.952 0.64 0.256 1.28 0.384 1.92 0.384 0.256 0 0.512 0 0.768-0.128l5.312 13.312c-1.664 1.408-2.688 3.456-2.688 5.824 0 4.224 3.456 7.68 7.68 7.68 3.2 0 5.952-1.92 7.168-4.736l7.68 9.6v10.624h-4.864c-0.896 0-1.536 0.768-1.536 1.536v6.016c0 0.896 0.768 1.536 1.536 1.536h17.152c0.896 0 1.536-0.768 1.536-1.536v-6.016c0-0.896-0.768-1.536-1.536-1.536h-4.864v-10.624l7.68-9.6c1.28 2.816 4.096 4.736 7.168 4.736 4.224 0 7.68-3.456 7.68-7.68 0-2.368-1.024-4.48-2.688-5.824l5.312-13.312c0.256 0.128 0.512 0.128 0.768 0.128 0.64 0 1.28-0.128 1.92-0.384 2.368-0.896 3.456-3.584 2.56-5.824z"/>
  </symbol>

  <!-- Icon: clock -->
  <symbol id="icon-clock" viewBox="0 0 64 64">
    <path d="M32 4c-15.464 0-28 12.536-28 28s12.536 28 28 28 28-12.536 28-28-12.536-28-28-28zM32 56c-13.234 0-24-10.766-24-24s10.766-24 24-24 24 10.766 24 24-10.766 24-24 24z"/>
    <path d="M33.5 16h-3c-0.828 0-1.5 0.672-1.5 1.5v16.5c0 0.398 0.158 0.779 0.439 1.061l10 10c0.586 0.586 1.536 0.586 2.121 0s0.586-1.536 0-2.121l-9.561-9.561v-15.879c0-0.828-0.672-1.5-1.5-1.5z"/>
  </symbol>

  <!-- Icon: diagram -->
  <symbol id="icon-diagram" viewBox="0 0 64 64">
    <path d="M56 52h-4v-28c0-1.104-0.896-2-2-2h-12c-1.104 0-2 0.896-2 2v28h-8v-40c0-1.104-0.896-2-2-2h-12c-1.104 0-2 0.896-2 2v40h-4c-1.104 0-2 0.896-2 2v6c0 1.104 0.896 2 2 2h48c1.104 0 2-0.896 2-2v-6c0-1.104-0.896-2-2-2zM16 14h8v38h-8v-38zM40 26h8v26h-8v-26zM54 58h-44v-2h44v2z"/>
  </symbol>

  <!-- Icon: astronaut -->
  <symbol id="icon-astronaut" viewBox="0 0 64 64">
    <path d="M32 4c-8.837 0-16 7.163-16 16 0 6.419 3.792 11.945 9.25 14.5-0.042 0.328-0.25 0.625-0.25 0.958v4.542c-6.089 2.089-10.5 7.756-10.5 14.5 0 0.552 0.448 1 1 1h33c0.552 0 1-0.448 1-1 0-6.744-4.411-12.411-10.5-14.5v-4.542c0-0.333-0.208-0.63-0.25-0.958 5.458-2.555 9.25-8.081 9.25-14.5 0-8.837-7.163-16-16-16zM18 20c0-7.732 6.268-14 14-14s14 6.268 14 14c0 6.042-3.849 11.178-9.214 13.075-0.456-1.098-1.522-1.875-2.786-1.875h-4c-1.264 0-2.33 0.777-2.786 1.875-5.365-1.897-9.214-7.033-9.214-13.075zM30 35.5v3.5h4v-3.5c0-0.276 0.224-0.5 0.5-0.5h0.5v-2h-6v2h0.5c0.276 0 0.5 0.224 0.5 0.5zM16.697 53c0.693-5.295 5.141-9.411 10.553-9.929v2.929h-2c-0.552 0-1 0.448-1 1v2c0 0.552 0.448 1 1 1h12c0.552 0 1-0.448 1-1v-2c0-0.552-0.448-1-1-1h-2v-2.929c5.412 0.518 9.86 4.634 10.553 9.929h-29.106z"/>
  </symbol>

</svg>